<svg version="1.2" xmlns="http://www.w3.org/2000/svg" viewBox="0 0 80 51" width="80" height="51">
	<title>Review</title>
	<style>
		.s0 { fill: #000000 } 
	</style>
	<g id="Review">
		<path id="-e-icon-pin" fill-rule="evenodd" class="s0" d="m40.3 24.6c-3.6 0-6.5-2.8-6.5-6.4 0-3.5 2.9-6.3 6.5-6.3 3.6 0 6.5 2.8 6.5 6.3 0 3.6-2.9 6.4-6.5 6.4zm0-10.2c-2.2 0-3.9 1.7-3.9 3.8 0 2.2 1.7 3.9 3.9 3.9 2.2 0 3.9-1.7 3.9-3.9 0-2.1-1.7-3.8-3.9-3.8zm-14.3 17c-2.8-3.9-4.3-8.4-4.3-13.2 0-10.1 8.3-18.3 18.6-18.3 10.2 0 18.6 8.2 18.6 18.3 0 4.8-1.5 9.3-4.3 13.2l-14.3 19.8zm14.3-29c-8.8 0-16 7.1-16 15.8 0 4.2 1.3 8.3 3.8 11.7l12.2 16.9 12.3-16.9c2.4-3.4 3.7-7.5 3.7-11.7 0-8.7-7.2-15.8-16-15.8zm21.9 32.5l2-1.5 2.8 3.6 7.5-10.3c1.5-2.2 2.3-4.6 2.3-7.2 0-5.4-4.4-9.7-9.8-9.7q-1.1 0-2.1 0.2l-0.9-2.4q1.5-0.3 3-0.3c6.8 0 12.4 5.4 12.4 12.2 0 3.1-1 6.1-2.8 8.6l-9.5 13.2zm-59.4-6.9c-1.8-2.5-2.8-5.5-2.8-8.6 0-6.7 5.5-12.2 12.4-12.2q1.5 0 3 0.3l-0.9 2.4q-1.1-0.2-2.1-0.2c-5.4 0-9.8 4.3-9.8 9.7 0 2.6 0.8 5.1 2.3 7.2l7.5 10.3 2.8-3.6 2 1.6-4.9 6.3z"/>
	</g>
</svg>