<svg version="1.2" xmlns="http://www.w3.org/2000/svg" viewBox="0 0 24 24" width="24" height="24">
	<title>Main</title>
	<style>
		.s0 { fill: #000000 } 
	</style>
	<g id="Main">
		<path id="-e-icon-close" fill-rule="evenodd" class="s0" d="m16.9 8.5l-3.5 3.5 3.5 3.5-1.4 1.5-3.5-3.6-3.5 3.6-1.4-1.5 3.5-3.5-3.5-3.5 1.4-1.4 3.5 3.5 3.5-3.5zm7.1 3.5c0 6.6-5.4 12-12 12-6.6 0-12-5.4-12-12 0-6.6 5.4-12 12-12 6.6 0 12 5.4 12 12zm-2 0c0-5.5-4.5-10-10-10-5.5 0-10 4.5-10 10 0 5.5 4.5 10 10 10 5.5 0 10-4.5 10-10z"/>
	</g>
</svg>