<svg version="1.2" xmlns="http://www.w3.org/2000/svg" viewBox="0 0 17 20" width="17" height="20">
	<title>Top</title>
	<style>
		.s0 { fill: #232323 } 
	</style>
	<g id="Top">
		<path id="-e-icon-account" fill-rule="evenodd" class="s0" d="m0.9 19.7c-0.4 0-0.7-0.3-0.7-0.6v-3.7c0-1.7 1-3.2 2.5-3.8l2.6-1.1-0.3-0.5c-0.9-1.8-1.4-3.7-1.4-4.8 0-2.6 2.2-4.7 4.8-4.7 2.6 0 4.7 2.1 4.7 4.7 0 1.1-0.4 3-1.3 4.8l-0.3 0.5 2.5 1.1c1.6 0.6 2.6 2.1 2.6 3.8v3.7c0 0.3-0.3 0.6-0.7 0.6zm2.4-6.9c-1 0.4-1.7 1.5-1.7 2.6v3h13.7v-3c0-1.1-0.7-2.2-1.8-2.6l-2.8-1.2-0.2 0.2q-1 1-2.1 1-1 0-2-1l-0.3-0.2zm5.1-11c-1.8 0-3.4 1.5-3.4 3.4 0 2.2 1.8 6.2 3.4 6.2 1.7 0 3.4-4 3.4-6.2 0-1.9-1.5-3.4-3.4-3.4z"/>
	</g>
</svg>