<svg version="1.2" xmlns="http://www.w3.org/2000/svg" viewBox="0 0 51 58" width="51" height="58">
	<title>Main</title>
	<style>
		.s0 { fill: #000000 } 
	</style>
	<g id="Main">
		<path id="-e-icon-gift" fill-rule="evenodd" class="s0" d="m8 57.7c-2.2 0-4-1.9-4-4.2v-18.3q0-0.2 0-0.4l0.2-1.3-1.1-0.7c-1.3-0.8-2.1-2.2-2.1-3.7v-12.2c0-2.3 1.8-4.2 4.1-4.2h9.1l-0.9-2.5q-0.4-1.2-0.4-2.3c0-4.1 3.1-7.3 7-7.3 1.7 0 3.4 0.6 4.7 1.8l1.3 1.2 1.2-1.2c1.3-1.2 3-1.8 4.7-1.8 3.9 0 7.1 3.2 7.1 7.1q0 1.2-0.4 2.5l-0.9 2.5h9.1c2.3 0 4.1 1.9 4.1 4.2v12.2c0 1.5-0.8 2.9-2.1 3.7l-1.1 0.6 0.2 1.3c0 0.3 0 0.4 0 0.5v18.3c0 2.3-1.8 4.2-4.1 4.2zm19-2.3h18.6v-22.1h-18.6zm-20.8 0h18.6v-22.1h-18.6zm20.8-24.4h21.6v-16h-21.6zm-23.8 0h21.6v-16h-21.6zm28.7-28.2c-2.8 0-4.9 2.2-4.9 4.9v5h4.9c2.6 0 4.8-2.2 4.8-4.9 0-2.8-2.1-5-4.8-5zm-11.9 0c-2.7 0-4.9 2.2-4.9 4.9 0 2.8 2.1 5 4.8 5h4.9v-5c0-2.7-2.2-4.9-4.8-4.9z"/>
	</g>
</svg>