<svg version="1.2" xmlns="http://www.w3.org/2000/svg" viewBox="0 0 21 15" width="21" height="15">
	<title>Main</title>
	<style>
		.s0 { fill: #000000 } 
	</style>
	<g id="Main">
		<path id="-e-icon-delivery" fill-rule="evenodd" class="s0" d="m20.6 7.1l-2.5-3.3c-0.4-0.5-1-0.8-1.6-0.8h-3.5v-1c0-1.1-0.9-2-2-2h-8c-1.1 0-2 0.9-2 2v8h12v-5h3.5l2.5 3.3v2.7h-2v1c0 0.6-0.4 1-1 1-0.6 0-1-0.4-1-1v-1h-5-1-3v1c0 0.6-0.4 1-1 1-0.6 0-1-0.4-1-1v-1h-3v2h1.2c0.4 1.2 1.5 2 2.8 2 1.3 0 2.4-0.8 2.8-2h1.2 1 3.2c0.4 1.2 1.5 2 2.8 2 1.3 0 2.4-0.8 2.8-2h0.2c1.1 0 2-0.9 2-2v-2.7c0-0.4-0.1-0.8-0.4-1.2zm-9.6 0.9h-8v-6h8z"/>
	</g>
</svg>