<svg version="1.2" xmlns="http://www.w3.org/2000/svg" viewBox="0 0 22 21" width="22" height="21">
	<title>Review</title>
	<style>
		.s0 { fill: #000000 } 
	</style>
	<g id="Review">
		<path id="-e-icon-instock" fill-rule="evenodd" class="s0" d="m2.8 21.1c-1.1 0-2.1-1-2.1-2.1v-13.3q0-0.1 0.1-0.3v-0.1l2.1-4.1c0.3-0.7 1.1-1.2 1.9-1.2h12.9c0.8 0 1.5 0.5 1.9 1.2l2 4.1 0.1 0.1q0 0.2 0 0.3v0.1 13.2c0 1.1-0.9 2.1-2.1 2.1zm-0.3-1.9h17.4v-12.6h-7.8v2.4h-1.8v-2.4h-7.8zm9.6-14.4h7.3l-1.5-3h-5.8zm-9 0h7.2v-3h-5.7zm2.4 11.5v-3h3v3z"/>
	</g>
</svg>