<svg version="1.2" xmlns="http://www.w3.org/2000/svg" viewBox="0 0 18 18" width="18" height="18">
	<title>Main</title>
	<style>
		.s0 { fill: #6fa54e } 
	</style>
	<g id="Main">
		<path id="-e-icon-stock" fill-rule="evenodd" class="s0" d="m18 5v11c0 1.1-0.9 2-2 2h-14c-1.1 0-2-0.9-2-2v-11q0 0 0 0 0-0.2 0.1-0.3 0-0.1 0-0.1 0 0 0 0l1.7-3.5c0.4-0.7 1.1-1.1 1.8-1.1h10.8c0.7 0 1.4 0.4 1.8 1.1l1.7 3.5q0 0 0 0 0 0 0 0.1 0.1 0.1 0.1 0.3 0 0 0 0zm-3.6-3h-4.4v2h5.4zm-11.8 2h5.4v-2h-4.4zm13.4 12v-10h-6v2h-2v-2h-6v10zm-12-5h3v3h-3z"/>
	</g>
</svg>