<svg version="1.2" xmlns="http://www.w3.org/2000/svg" viewBox="0 0 21 18" width="21" height="18">
	<title>Top</title>
	<style>
		.s0 { fill: #000000 } 
	</style>
	<g id="Top">
		<path id="-e-icon-cart" fill-rule="evenodd" class="s0" d="m1.7 17.2q-0.4 0-0.6-0.2-0.2-0.3-0.1-0.6l2.9-15.9c0.1-0.4 0.4-0.6 0.7-0.6h12.6c0.4 0 0.7 0.2 0.8 0.6l2.9 15.9q0.1 0.3-0.1 0.6-0.3 0.2-0.6 0.2zm0.9-1.4h16.7l-2.7-14.4h-11.3zm8.4-7.8c-2.3 0-4.2-1.8-4.2-4.1 0-0.4 0.4-0.8 0.8-0.8 0.4 0 0.7 0.4 0.7 0.8 0 1.4 1.2 2.6 2.7 2.6 1.4 0 2.6-1.2 2.6-2.6 0-0.4 0.3-0.8 0.7-0.8 0.4 0 0.8 0.4 0.8 0.8 0 2.3-1.9 4.1-4.1 4.1z"/>
	</g>
</svg>