<svg version="1.2" xmlns="http://www.w3.org/2000/svg" viewBox="0 0 24 23" width="24" height="23">
	<title>Footer</title>
	<style>
		.s0 { fill: #353535 } 
	</style>
	<g id="Footer">
		<path id="-e-icon-payinstore" fill-rule="evenodd" class="s0" d="m12.3 0.5l11.5 11.5-1.4 1.4-1.3-1.3v9.4h-5.9v-2h3.9v-9.4l-6.8-6.8-6.9 6.8v9.4h3.9v2h-5.9v-9.4l-1.3 1.3-1.4-1.4 4.7-4.6v-3.6h1.9v1.6zm0.9 20.8l-0.8 1.2-0.9-1.2c-0.6-1-4-6.3-4-8.6 0-2.7 2.2-4.9 4.9-4.9 2.7 0 4.9 2.2 4.9 4.9 0 2.3-3.4 7.6-4.1 8.6zm-0.8-2.4c1.4-2.3 2.9-5.2 2.9-6.2 0-1.6-1.3-3-2.9-3-1.7 0-3 1.4-3 3 0 1 1.5 3.9 3 6.2zm1.5-6.2c0 0.8-0.7 1.5-1.5 1.5-0.9 0-1.6-0.7-1.6-1.5 0-0.9 0.7-1.6 1.6-1.6 0.8 0 1.5 0.7 1.5 1.6z"/>
	</g>
</svg>