<svg version="1.2" xmlns="http://www.w3.org/2000/svg" viewBox="0 0 57 59" width="57" height="59">
	<title>Main</title>
	<style>
		.s0 { fill: #000000 } 
	</style>
	<g id="Main">
		<path id="-e-icon-timer" fill-rule="evenodd" class="s0" d="m28.6 59c-14.6 0-26.5-11.5-26.5-25.7 0-5.8 2-11.3 5.7-15.8l0.3-0.5-3.6-3.6-2.7 2.7-1.8-1.7 7.2-7 1.8 1.7-2.7 2.6 3.5 3.5 0.5-0.5c4.5-4.1 10.3-6.7 16.4-7.1h0.7v-5.2h-3.9v-2.4h10.2v2.4h-3.8v5.2h0.6c6.1 0.4 11.9 2.9 16.3 7l0.5 0.5 3.4-3.4-2.7-2.6 1.7-1.7 7.3 7-1.8 1.7-2.7-2.7-3.5 3.5 0.4 0.4c3.7 4.6 5.7 10.1 5.7 16 0 14.2-11.9 25.7-26.5 25.7zm0-49.1c-13.2 0-24 10.5-24 23.4 0 12.8 10.8 23.3 24 23.3 13.2 0 24-10.5 24-23.3 0-12.9-10.8-23.4-24-23.4zm-1.2 24.6v-17.5h2.5v17.5z"/>
	</g>
</svg>