<svg version="1.2" xmlns="http://www.w3.org/2000/svg" viewBox="0 0 52 51" width="52" height="51">
	<title>Main</title>
	<style>
		.s0 { fill: #000000 } 
	</style>
	<g id="Main">
		<path id="-e-icon-change" class="s0" d="m49.7 24.7c-0.4-12.6-10.7-22.8-23.5-22.8-7.7 0-14.7 3.7-19.2 10.1l-0.6 0.9h7.7v2.1h-10.2v-10.2h2v5.1l1.1-1.2c4.9-5.6 11.9-8.8 19.2-8.8 13.9 0 25.2 11.1 25.5 24.8zm-23.5 26.1c-13.8 0-25.1-11.1-25.4-24.8h2c0.3 12.6 10.7 22.8 23.4 22.8 7 0 13.5-3 18-8.3l0.8-1.1h-6.8v-2h10.2v10.2h-2v-6.6l-1.1 1.3c-4.9 5.4-11.8 8.5-19.1 8.5z"/>
	</g>
</svg>