<svg version="1.2" xmlns="http://www.w3.org/2000/svg" viewBox="0 0 17 17" width="17" height="17">
	<title>Top</title>
	<style>
		.s0 { fill: #232323 } 
	</style>
	<g id="Top">
		<path id="-e-icon-search" fill-rule="evenodd" class="s0" d="m16.6 15.2l-4-4c0.9-1.1 1.4-2.6 1.4-4.2 0-3.9-3.1-7-7-7-3.9 0-7 3.1-7 7 0 3.9 3.1 7 7 7 1.7 0 3.3-0.6 4.6-1.7l3.9 4q0.2 0.2 0.5 0.2 0.3 0 0.6-0.2c0.3-0.3 0.3-0.8 0-1.1zm-9.6-2.7c-3 0-5.5-2.4-5.5-5.5 0-3 2.5-5.5 5.5-5.5 3 0 5.5 2.5 5.5 5.5 0 3.1-2.5 5.5-5.5 5.5z"/>
	</g>
</svg>