<svg version="1.2" xmlns="http://www.w3.org/2000/svg" viewBox="0 0 20 20" width="20" height="20">
	<title>Main</title>
	<style>
		.s0 { fill: #ec383e } 
	</style>
	<g id="Main">
		<path id="-e-icon-certificate" fill-rule="evenodd" class="s0" d="m12.3 7.5l1.4 1.4-4.7 4.6-2.7-2.7 1.4-1.3 1.3 1.2zm7.7 2.7c0 0.8-0.5 1.5-1 2-0.2 0.2-0.4 0.5-0.4 0.7-0.1 0.2-0.1 0.5-0.1 0.9 0.1 0.6 0.1 1.4-0.4 2.1-0.5 0.7-1.3 0.9-2 1.1-0.3 0.1-0.6 0.2-0.8 0.3-0.2 0.1-0.4 0.4-0.5 0.7-0.4 0.5-0.9 1.2-1.7 1.5q-0.3 0.1-0.7 0.1c-0.5 0-1-0.2-1.5-0.4-0.3-0.1-0.7-0.2-0.9-0.2-0.2 0-0.6 0.1-0.9 0.2-0.6 0.2-1.5 0.5-2.2 0.3-0.8-0.3-1.3-1-1.6-1.5-0.2-0.3-0.4-0.6-0.6-0.7-0.1-0.1-0.5-0.2-0.8-0.3-0.7-0.2-1.5-0.4-2-1.1-0.5-0.7-0.4-1.5-0.4-2.1 0-0.4 0-0.7-0.1-0.9 0-0.2-0.2-0.5-0.4-0.7-0.5-0.5-1-1.2-1-2 0-0.9 0.5-1.5 1-2.1 0.2-0.2 0.4-0.5 0.4-0.7 0.1-0.1 0.1-0.5 0.1-0.8 0-0.7-0.1-1.5 0.4-2.2 0.5-0.7 1.3-0.9 2-1.1 0.3 0 0.7-0.1 0.8-0.3 0.2-0.1 0.4-0.4 0.6-0.6 0.3-0.6 0.8-1.3 1.6-1.5 0.7-0.3 1.6 0 2.2 0.2 0.3 0.1 0.7 0.3 0.9 0.3 0.2 0 0.6-0.2 0.9-0.3 0.6-0.2 1.5-0.5 2.2-0.2 0.8 0.2 1.3 0.9 1.7 1.5 0.1 0.2 0.3 0.5 0.5 0.6 0.2 0.2 0.5 0.3 0.8 0.3 0.7 0.2 1.5 0.4 2 1.1 0.5 0.7 0.5 1.5 0.4 2.2 0 0.3 0 0.7 0.1 0.8 0 0.2 0.2 0.5 0.4 0.7 0.5 0.6 1 1.2 1 2.1zm-2 0c0-0.2-0.3-0.6-0.5-0.8-0.3-0.4-0.7-0.8-0.8-1.4-0.2-0.5-0.2-1-0.2-1.5 0-0.3 0.1-0.8 0-0.9-0.1-0.2-0.6-0.3-0.9-0.4-0.5-0.1-1-0.2-1.5-0.6-0.4-0.3-0.7-0.7-1-1.1-0.2-0.3-0.5-0.7-0.6-0.8-0.3 0-0.6 0.1-0.9 0.3-0.5 0.1-1 0.3-1.6 0.3-0.6 0-1.1-0.2-1.6-0.3-0.3-0.2-0.6-0.3-0.8-0.3-0.2 0.1-0.5 0.5-0.7 0.8-0.2 0.4-0.6 0.8-1 1.1-0.5 0.4-1 0.5-1.5 0.6-0.3 0.1-0.8 0.2-0.9 0.4-0.1 0.1 0 0.6 0 0.9 0 0.5 0 1-0.2 1.5-0.1 0.6-0.5 1-0.8 1.4-0.2 0.2-0.5 0.6-0.5 0.8 0 0.1 0.3 0.5 0.5 0.8 0.3 0.3 0.7 0.8 0.8 1.3 0.2 0.5 0.2 1.1 0.2 1.5 0 0.3-0.1 0.8 0 1 0.1 0.1 0.6 0.2 0.9 0.3 0.5 0.1 1 0.3 1.5 0.6 0.4 0.3 0.8 0.8 1 1.2 0.2 0.2 0.5 0.7 0.6 0.7 0.3 0 0.6-0.1 0.9-0.2 0.5-0.2 1-0.4 1.6-0.4 0.6 0 1.1 0.2 1.6 0.4 0.3 0.1 0.6 0.2 0.8 0.2q0.1 0 0.1 0c0.1 0 0.4-0.5 0.6-0.7 0.3-0.4 0.6-0.9 1-1.2 0.5-0.3 1-0.5 1.5-0.6 0.3-0.1 0.8-0.2 0.9-0.3 0.1-0.2 0-0.7 0-1 0-0.4 0-1 0.2-1.5 0.1-0.5 0.5-1 0.8-1.3 0.2-0.3 0.5-0.7 0.5-0.8z"/>
	</g>
</svg>