<svg version="1.2" xmlns="http://www.w3.org/2000/svg" viewBox="0 0 25 25" width="25" height="25">
	<title>Review</title>
	<style>
		.s0 { fill: #000000 } 
	</style>
	<g id="Review">
		<path id="-e-icon-recommend" fill-rule="evenodd" class="s0" d="m25 3.7v12.9c0 1.6-1.3 3-3 3h-11.1l-5.9 5.2v-5.2h-1c-1.7 0-3-1.4-3-3v-12.9c0-1.6 1.3-3 3-3h18c1.7 0 3 1.4 3 3zm-2 0c0-0.5-0.4-1-1-1h-18c-0.6 0-1 0.5-1 1v12.9c0 0.5 0.4 1 1 1h3v2.7l3.1-2.7h11.9c0.6 0 1-0.5 1-1zm-5.7 2.3l1.4 1.4-6.7 6.6-3.7-3.7 1.4-1.4 2.3 2.3z"/>
	</g>
</svg>