<svg version="1.2" xmlns="http://www.w3.org/2000/svg" viewBox="0 0 14 13" width="14" height="13">
	<title>Top</title>
	<style>
		.s0 { fill: #ffffff } 
	</style>
	<g id="Top">
		<path id="-e-icon-percent" fill-rule="evenodd" class="s0" d="m14 1l-12.1 11.9-0.8-0.8 12-11.9zm-7 1.9c0 1.7-1.4 3-3 3-1.7 0-3.1-1.3-3.1-3 0-1.6 1.4-2.9 3.1-2.9 1.6 0 3 1.3 3 2.9zm-1.2 0c0-0.9-0.8-1.8-1.8-1.8-1 0-1.8 0.9-1.8 1.8 0 1 0.8 1.8 1.8 1.8 1 0 1.8-0.8 1.8-1.8zm4.8 4.2c1.7 0 3 1.3 3 3 0 1.6-1.3 3-3 3-1.7 0-3-1.4-3-3 0-1.7 1.3-3 3-3zm0 1.2c-1 0-1.8 0.8-1.8 1.8 0 1 0.8 1.8 1.8 1.8 1 0 1.8-0.8 1.8-1.8 0-1-0.8-1.8-1.8-1.8z"/>
	</g>
</svg>